<svg width="772.800048828125px" height="136.439990234375px" xmlns="https://www.w3.org/2000/svg" viewBox="-136.4000244140625 6.780004882812506 772.800048828125 136.439990234375" style="background: none;" preserveAspectRatio="xMidYMid"><defs><filter id="editing-hole" x="-100%" y="-100%" width="300%" height="300%"><feFlood flood-color="#000" result="black"></feFlood><feMorphology operator="dilate" radius="2" in="SourceGraphic" result="erode"></feMorphology><feGaussianBlur in="erode" stdDeviation="4" result="blur"></feGaussianBlur><feOffset in="blur" dx="2" dy="2" result="offset"></feOffset><feComposite operator="atop" in="offset" in2="black" result="merge"></feComposite><feComposite operator="in" in="merge" in2="SourceGraphic" result="inner-shadow"></feComposite></filter></defs><g filter="url(#editing-hole)"><g transform="translate(-26.02999234199524, 102.84000015258789)"><path d="M8.38-11.90L8.38-8.83L8.38-8.83Q8.38-7.68 9.09-4.61L9.09-4.61L9.09-4.61Q13.44-2.88 17.38-2.88L17.38-2.88L17.38-2.88Q21.31-2.88 23.58-4.96L23.58-4.96L23.58-4.96Q25.86-7.04 25.86-10.88L25.86-10.88L25.86-10.88Q25.86-13.31 24.22-15.30L24.22-15.30L24.22-15.30Q22.59-17.28 20.19-18.53L20.19-18.53L20.19-18.53Q17.79-19.78 14.94-21.31L14.94-21.31L14.94-21.31Q12.10-22.85 9.70-24.35L9.70-24.35L9.70-24.35Q7.30-25.86 5.66-28.42L5.66-28.42L5.66-28.42Q4.03-30.98 4.03-34.24L4.03-34.24L4.03-34.24Q4.03-39.81 7.90-42.94L7.90-42.94L7.90-42.94Q11.78-46.08 17.22-46.08L17.22-46.08L17.22-46.08Q22.66-46.08 30.85-44.03L30.85-44.03L29.95-34.37L26.18-34.75L26.18-37.57L26.18-37.57Q26.18-37.95 25.34-41.15L25.34-41.15L25.34-41.15Q22.08-42.56 18.34-42.56L18.34-42.56L18.34-42.56Q14.59-42.56 12.51-40.70L12.51-40.70L12.51-40.70Q10.43-38.85 10.43-35.46L10.43-35.46L10.43-35.46Q10.43-31.62 14.85-28.86L14.85-28.86L14.85-28.86Q16.77-27.65 19.14-26.46L19.14-26.46L19.14-26.46Q21.50-25.28 23.87-23.94L23.87-23.94L23.87-23.94Q26.24-22.59 28.19-20.99L28.19-20.99L28.19-20.99Q30.14-19.39 31.36-16.99L31.36-16.99L31.36-16.99Q32.58-14.59 32.58-11.65L32.58-11.65L32.58-11.65Q32.58-5.50 28.29-2.27L28.29-2.27L28.29-2.27Q24 0.96 17.28 0.96L17.28 0.96L17.28 0.96Q13.44 0.96 9.92 0.10L9.92 0.10L9.92 0.10Q6.40-0.77 4.80-1.60L4.80-1.60L3.20-2.43L4.16-12.29L8.38-11.90ZM54.78-30.66L48.58-30.66L48.26-25.92L48.26-19.07L48.26-19.07Q49.02-19.01 50.11-19.01L50.11-19.01L53.50-19.01L56.26-19.39L56.70-22.53L59.26-22.34L59.26-22.34Q59.20-19.26 59.20-18.30L59.20-18.30L59.33-12.74L56.70-12.42L56.26-15.55L56.26-15.55Q53.50-15.81 52.48-15.81L52.48-15.81L50.24-15.81L50.24-15.81Q48.96-15.81 48.26-15.68L48.26-15.68L48.26-8.51L48.26-8.51Q48.26-5.63 48.58-3.26L48.58-3.26L55.42-3.26L55.42-3.26Q57.22-3.26 59.58-3.71L59.58-3.71L59.58-3.71Q60.48-4.99 60.61-5.57L60.61-5.57L60.61-5.57Q61.25-8.26 61.31-8.64L61.31-8.64L64.32-8.38L63.55-0.70L62.59 0.19L62.59 0.19Q57.92 0 56.90 0L56.90 0L44.35 0L38.72 0.26L38.53-2.56L42.24-3.20L42.24-3.20Q42.69-5.25 42.69-7.04L42.69-7.04L42.69-26.24L42.69-26.24Q42.69-27.84 42.24-30.53L42.24-30.53L38.59-31.10L38.85-34.11L38.85-34.11Q43.07-33.86 44.35-33.86L44.35-33.86L56.26-33.86L61.95-34.30L62.91-33.47L63.23-26.56L60.10-26.30L60.10-26.30Q59.97-27.97 59.58-28.99L59.58-28.99L59.58-28.99Q59.58-29.38 58.75-30.46L58.75-30.46L58.75-30.46Q55.68-30.66 54.78-30.66L54.78-30.66ZM74.82-33.86L74.82-33.86L84.35-34.30L84.35-34.30Q89.60-34.30 92.61-31.71L92.61-31.71L92.61-31.71Q95.62-29.12 95.62-24.32L95.62-24.32L95.62-24.32Q95.62-21.06 93.76-18.69L93.76-18.69L93.76-18.69Q91.90-16.32 88.77-15.04L88.77-15.04L88.77-15.04Q92.16-8.58 96.26-3.20L96.26-3.20L99.46-2.88L99.14 0.26L99.14 0.26Q95.23 0 90.69 0L90.69 0L90.69 0Q88.70-4.42 88.06-5.57L88.06-5.57L83.46-14.02L82.94-14.02L82.94-14.02Q81.79-14.02 79.23-14.14L79.23-14.14L79.23-8.51L79.23-8.51Q79.23-7.42 79.62-3.20L79.62-3.20L83.71-2.88L83.39 0.26L83.39 0.26Q79.87 0 75.33 0L75.33 0L69.70 0.26L69.50-2.56L73.22-3.20L73.66-7.04L73.66-26.24L73.22-30.53L69.57-31.10L69.82-34.11L69.82-34.11Q72.90-33.92 74.82-33.86ZM81.98-31.36L81.98-31.36L81.98-31.36Q81.15-31.36 79.62-31.17L79.62-31.17L79.62-31.17Q79.23-28.48 79.23-25.92L79.23-25.92L79.23-17.09L79.23-17.09Q80.26-17.02 81.92-17.02L81.92-17.02L81.92-17.02Q85.70-17.02 87.74-18.85L87.74-18.85L87.74-18.85Q89.79-20.67 89.79-24.22L89.79-24.22L89.79-24.22Q89.79-27.78 87.78-29.57L87.78-29.57L87.78-29.57Q85.76-31.36 81.98-31.36ZM116.67 0L112.77 0L102.14-27.07L100.22-30.59L97.02-31.04L97.28-33.92L97.28-33.92Q100.74-33.86 102.46-33.86L102.46-33.86L110.78-34.11L110.98-31.30L107.26-30.53L107.26-30.53Q107.58-28.42 108.42-26.37L108.42-26.37L115.26-8.19L122.30-27.97L122.82-30.53L119.23-31.04L119.49-33.92L119.49-33.92Q122.50-33.86 124.29-33.86L124.29-33.86L131.52-34.11L131.71-31.30L128.64-30.66L128.64-30.66Q127.17-28.29 126.34-26.11L126.34-26.11L116.67 0ZM145.28-25.92L145.28-25.92L145.28-8.51L145.28-8.51Q145.28-5.31 145.66-3.20L145.66-3.20L149.70-2.88L149.38 0.26L149.38 0.26Q145.86 0 141.31 0L141.31 0L135.74 0.26L135.49-2.56L139.20-3.20L139.20-3.20Q139.65-5.25 139.65-7.04L139.65-7.04L139.65-26.24L139.65-26.24Q139.65-28.03 139.20-30.53L139.20-30.53L135.55-31.10L135.81-34.11L135.81-34.11Q139.90-33.86 141.38-33.86L141.38-33.86L149.12-34.11L149.31-30.85L145.66-30.53L145.66-30.53Q145.28-28.42 145.28-25.92ZM171.20 0.70L171.20 0.70L171.20 0.70Q163.26 0.70 159.04-4.06L159.04-4.06L159.04-4.06Q154.82-8.83 154.82-16.93L154.82-16.93L154.82-16.93Q154.82-25.02 159.04-29.79L159.04-29.79L159.04-29.79Q163.26-34.56 171.20-34.56L171.20-34.56L171.20-34.56Q175.10-34.56 181.63-32.96L181.63-32.96L181.12-25.28L177.86-25.47L177.86-27.97L177.86-27.97Q177.86-28.54 177.22-30.21L177.22-30.21L177.22-30.21Q173.76-31.10 171.20-31.10L171.20-31.10L171.20-31.10Q166.27-31.10 163.74-27.17L163.74-27.17L163.74-27.17Q161.22-23.23 161.22-16.93L161.22-16.93L161.22-16.93Q161.22-10.62 163.71-6.66L163.71-6.66L163.71-6.66Q166.21-2.69 171.14-2.69L171.14-2.69L171.14-2.69Q174.08-2.69 177.73-3.65L177.73-3.65L177.73-3.65Q178.43-5.76 178.43-6.21L178.43-6.21L178.56-8.45L181.76-8.58L182.08-0.90L182.08-0.90Q175.55 0.70 171.20 0.70ZM197.18-25.92L197.18-25.92L197.18-8.51L197.18-8.51Q197.18-5.31 197.57-3.20L197.57-3.20L201.60-2.88L201.28 0.26L201.28 0.26Q197.76 0 193.22 0L193.22 0L187.65 0.26L187.39-2.56L191.10-3.20L191.10-3.20Q191.55-5.25 191.55-7.04L191.55-7.04L191.55-26.24L191.55-26.24Q191.55-28.03 191.10-30.53L191.10-30.53L187.46-31.10L187.71-34.11L187.71-34.11Q191.81-33.86 193.28-33.86L193.28-33.86L201.02-34.11L201.22-30.85L197.57-30.53L197.57-30.53Q197.18-28.42 197.18-25.92ZM223.55-34.62L223.55-34.62L223.55-34.62Q231.55-34.62 235.97-29.82L235.97-29.82L235.97-29.82Q240.38-25.02 240.38-16.93L240.38-16.93L240.38-16.93Q240.38-8.83 235.97-4.03L235.97-4.03L235.97-4.03Q231.55 0.77 223.55 0.77L223.55 0.77L223.55 0.77Q215.55 0.77 211.14-4.03L211.14-4.03L211.14-4.03Q206.72-8.83 206.72-16.93L206.72-16.93L206.72-16.93Q206.72-25.02 211.14-29.82L211.14-29.82L211.14-29.82Q215.55-34.62 223.55-34.62ZM223.55-31.30L223.55-31.30L223.55-31.30Q218.43-31.30 215.84-27.46L215.84-27.46L215.84-27.46Q213.25-23.62 213.25-16.93L213.25-16.93L213.25-16.93Q213.25-10.24 215.87-6.40L215.87-6.40L215.87-6.40Q218.50-2.56 223.55-2.56L223.55-2.56L223.55-2.56Q228.61-2.56 231.23-6.40L231.23-6.40L231.23-6.40Q233.86-10.24 233.86-16.93L233.86-16.93L233.86-16.93Q233.86-23.62 231.26-27.46L231.26-27.46L231.26-27.46Q228.67-31.30 223.55-31.30ZM250.11-9.60L250.11-6.85L250.11-6.85Q250.11-6.08 250.75-4.16L250.75-4.16L250.75-4.16Q253.82-2.82 256.74-2.82L256.74-2.82L256.74-2.82Q259.65-2.82 261.31-4.19L261.31-4.19L261.31-4.19Q262.98-5.57 262.98-7.84L262.98-7.84L262.98-7.84Q262.98-10.11 261.25-11.68L261.25-11.68L261.25-11.68Q259.52-13.25 257.09-14.37L257.09-14.37L257.09-14.37Q254.66-15.49 252.22-16.77L252.22-16.77L252.22-16.77Q249.79-18.05 248.06-20.26L248.06-20.26L248.06-20.26Q246.34-22.46 246.34-25.41L246.34-25.41L246.34-25.41Q246.34-29.70 249.44-32.13L249.44-32.13L249.44-32.13Q252.54-34.56 257.06-34.56L257.06-34.56L257.06-34.56Q261.57-34.56 267.84-32.96L267.84-32.96L267.14-24.90L263.81-25.22L263.81-27.84L263.81-27.84Q263.81-28.10 263.17-30.14L263.17-30.14L263.17-30.14Q260.61-31.23 258.05-31.23L258.05-31.23L258.05-31.23Q255.49-31.23 253.95-29.98L253.95-29.98L253.95-29.98Q252.42-28.74 252.42-26.62L252.42-26.62L252.42-26.62Q252.42-24.51 254.14-23.01L254.14-23.01L254.14-23.01Q255.87-21.50 258.34-20.38L258.34-20.38L258.34-20.38Q260.80-19.26 263.26-17.95L263.26-17.95L263.26-17.95Q265.73-16.64 267.46-14.40L267.46-14.40L267.46-14.40Q269.18-12.16 269.18-9.15L269.18-9.15L269.18-9.15Q269.18-4.48 265.73-1.89L265.73-1.89L265.73-1.89Q262.27 0.70 256.96 0.70L256.96 0.70L256.96 0.70Q254.02 0.70 251.20 0.10L251.20 0.10L251.20 0.10Q248.38-0.51 247.04-1.15L247.04-1.15L245.76-1.73L246.53-9.86L250.11-9.60ZM298.56-25.92L298.56-25.92L298.56 0.13L298.56 0.13Q298.56 1.66 291.07 9.60L291.07 9.60L289.02 8.38L289.02 8.38Q292.99 0.45 292.99-0.51L292.99-0.51L292.99-26.24L292.99-26.24Q292.99-27.39 292.77-28.90L292.77-28.90L292.77-28.90Q292.54-30.40 292.54-30.53L292.54-30.53L288.90-31.10L289.15-34.11L289.15-34.11Q293.18-33.86 294.66-33.86L294.66-33.86L302.40-34.11L302.66-30.85L298.94-30.53L298.94-30.53Q298.56-28.80 298.56-25.92ZM332.74-12.67L332.74-26.11L332.29-30.53L328.58-31.10L328.83-34.11L328.83-34.11Q332.61-33.86 334.02-33.86L334.02-33.86L341.25-34.11L341.44-30.85L337.73-30.53L337.73-30.53Q337.34-28.42 337.34-25.73L337.34-25.73L337.34-12.80L337.34-12.80Q337.34-6.53 333.89-2.91L333.89-2.91L333.89-2.91Q330.43 0.70 323.90 0.70L323.90 0.70L323.90 0.70Q317.38 0.70 313.95-2.91L313.95-2.91L313.95-2.91Q310.53-6.53 310.53-12.80L310.53-12.80L310.53-26.11L310.08-30.53L306.37-31.10L306.56-34.11L306.56-34.11Q310.66-33.86 312.13-33.86L312.13-33.86L320.19-34.11L320.45-30.85L316.67-30.53L316.67-30.53Q316.29-28.61 316.29-25.73L316.29-25.73L316.29-12.67L316.29-12.67Q316.29-8.45 318.40-5.86L318.40-5.86L318.40-5.86Q320.51-3.26 324.58-3.26L324.58-3.26L324.58-3.26Q328.64-3.26 330.69-5.79L330.69-5.79L330.69-5.79Q332.74-8.32 332.74-12.67L332.74-12.67ZM351.10-33.86L351.10-33.86L360.64-34.30L360.64-34.30Q365.89-34.30 368.90-31.71L368.90-31.71L368.90-31.71Q371.90-29.12 371.90-24.32L371.90-24.32L371.90-24.32Q371.90-21.06 370.05-18.69L370.05-18.69L370.05-18.69Q368.19-16.32 365.06-15.04L365.06-15.04L365.06-15.04Q368.45-8.58 372.54-3.20L372.54-3.20L375.74-2.88L375.42 0.26L375.42 0.26Q371.52 0 366.98 0L366.98 0L366.98 0Q364.99-4.42 364.35-5.57L364.35-5.57L359.74-14.02L359.23-14.02L359.23-14.02Q358.08-14.02 355.52-14.14L355.52-14.14L355.52-8.51L355.52-8.51Q355.52-7.42 355.90-3.20L355.90-3.20L360-2.88L359.68 0.26L359.68 0.26Q356.16 0 351.62 0L351.62 0L345.98 0.26L345.79-2.56L349.50-3.20L349.95-7.04L349.95-26.24L349.50-30.53L345.86-31.10L346.11-34.11L346.11-34.11Q349.18-33.92 351.10-33.86ZM358.27-31.36L358.27-31.36L358.27-31.36Q357.44-31.36 355.90-31.17L355.90-31.17L355.90-31.17Q355.52-28.48 355.52-25.92L355.52-25.92L355.52-17.09L355.52-17.09Q356.54-17.02 358.21-17.02L358.21-17.02L358.21-17.02Q361.98-17.02 364.03-18.85L364.03-18.85L364.03-18.85Q366.08-20.67 366.08-24.22L366.08-24.22L366.08-24.22Q366.08-27.78 364.06-29.57L364.06-29.57L364.06-29.57Q362.05-31.36 358.27-31.36ZM389.44-25.92L389.44-25.92L389.44-8.51L389.44-8.51Q389.44-5.31 389.82-3.20L389.82-3.20L393.86-2.88L393.54 0.26L393.54 0.26Q390.02 0 385.47 0L385.47 0L379.90 0.26L379.65-2.56L383.36-3.20L383.36-3.20Q383.81-5.25 383.81-7.04L383.81-7.04L383.81-26.24L383.81-26.24Q383.81-28.03 383.36-30.53L383.36-30.53L379.71-31.10L379.97-34.11L379.97-34.11Q384.06-33.86 385.54-33.86L385.54-33.86L393.28-34.11L393.47-30.85L389.82-30.53L389.82-30.53Q389.44-28.42 389.44-25.92ZM404.54-33.86L404.54-33.86L414.21-34.30L414.21-34.30Q422.53-34.30 427.04-29.63L427.04-29.63L427.04-29.63Q431.55-24.96 431.55-17.02L431.55-17.02L431.55-17.02Q431.55-9.09 426.94-4.38L426.94-4.38L426.94-4.38Q422.34 0.32 414.21 0.32L414.21 0.32L414.21 0.32Q414.21 0.32 405.12 0L405.12 0L399.49 0.26L399.30-2.56L403.01-3.20L403.01-3.20Q403.46-5.89 403.46-7.04L403.46-7.04L403.46-26.24L403.46-26.24Q403.46-27.84 403.01-30.53L403.01-30.53L399.36-31.10L399.62-34.11L399.62-34.11Q402.62-33.92 404.54-33.86ZM414.02-31.04L414.02-31.04L414.02-31.04Q411.39-31.04 409.34-30.72L409.34-30.72L409.34-30.72Q409.02-26.24 409.02-25.92L409.02-25.92L409.02-8.51L409.02-8.51Q409.02-5.06 409.34-3.14L409.34-3.14L409.34-3.14Q411.39-3.01 414.02-3.01L414.02-3.01L414.02-3.01Q419.78-3.01 422.62-6.88L422.62-6.88L422.62-6.88Q425.47-10.75 425.47-16.93L425.47-16.93L425.47-16.93Q425.47-23.10 422.59-27.07L422.59-27.07L422.59-27.07Q419.71-31.04 414.02-31.04ZM446.78-25.92L446.78-25.92L446.78-8.51L446.78-8.51Q446.78-5.31 447.17-3.20L447.17-3.20L451.20-2.88L450.88 0.26L450.88 0.26Q447.36 0 442.82 0L442.82 0L437.25 0.26L436.99-2.56L440.70-3.20L440.70-3.20Q441.15-5.25 441.15-7.04L441.15-7.04L441.15-26.24L441.15-26.24Q441.15-28.03 440.70-30.53L440.70-30.53L437.06-31.10L437.31-34.11L437.31-34.11Q441.41-33.86 442.88-33.86L442.88-33.86L450.62-34.11L450.82-30.85L447.17-30.53L447.17-30.53Q446.78-28.42 446.78-25.92ZM472.70 0.70L472.70 0.70L472.70 0.70Q464.77 0.70 460.54-4.06L460.54-4.06L460.54-4.06Q456.32-8.83 456.32-16.93L456.32-16.93L456.32-16.93Q456.32-25.02 460.54-29.79L460.54-29.79L460.54-29.79Q464.77-34.56 472.70-34.56L472.70-34.56L472.70-34.56Q476.61-34.56 483.14-32.96L483.14-32.96L482.62-25.28L479.36-25.47L479.36-27.97L479.36-27.97Q479.36-28.54 478.72-30.21L478.72-30.21L478.72-30.21Q475.26-31.10 472.70-31.10L472.70-31.10L472.70-31.10Q467.78-31.10 465.25-27.17L465.25-27.17L465.25-27.17Q462.72-23.23 462.72-16.93L462.72-16.93L462.72-16.93Q462.72-10.62 465.22-6.66L465.22-6.66L465.22-6.66Q467.71-2.69 472.64-2.69L472.64-2.69L472.64-2.69Q475.58-2.69 479.23-3.65L479.23-3.65L479.23-3.65Q479.94-5.76 479.94-6.21L479.94-6.21L480.06-8.45L483.26-8.58L483.58-0.90L483.58-0.90Q477.06 0.70 472.70 0.70ZM503.23-34.62L503.23-34.62L503.23-34.62Q511.23-34.62 515.65-29.82L515.65-29.82L515.65-29.82Q520.06-25.02 520.06-16.93L520.06-16.93L520.06-16.93Q520.06-8.83 515.65-4.03L515.65-4.03L515.65-4.03Q511.23 0.77 503.23 0.77L503.23 0.77L503.23 0.77Q495.23 0.77 490.82-4.03L490.82-4.03L490.82-4.03Q486.40-8.83 486.40-16.93L486.40-16.93L486.40-16.93Q486.40-25.02 490.82-29.82L490.82-29.82L490.82-29.82Q495.23-34.62 503.23-34.62ZM503.23-31.30L503.23-31.30L503.23-31.30Q498.11-31.30 495.52-27.46L495.52-27.46L495.52-27.46Q492.93-23.62 492.93-16.93L492.93-16.93L492.93-16.93Q492.93-10.24 495.55-6.40L495.55-6.40L495.55-6.40Q498.18-2.56 503.23-2.56L503.23-2.56L503.23-2.56Q508.29-2.56 510.91-6.40L510.91-6.40L510.91-6.40Q513.54-10.24 513.54-16.93L513.54-16.93L513.54-16.93Q513.54-23.62 510.94-27.46L510.94-27.46L510.94-27.46Q508.35-31.30 503.23-31.30ZM529.79-9.60L529.79-6.85L529.79-6.85Q529.79-6.08 530.43-4.16L530.43-4.16L530.43-4.16Q533.50-2.82 536.42-2.82L536.42-2.82L536.42-2.82Q539.33-2.82 540.99-4.19L540.99-4.19L540.99-4.19Q542.66-5.57 542.66-7.84L542.66-7.84L542.66-7.84Q542.66-10.11 540.93-11.68L540.93-11.68L540.93-11.68Q539.20-13.25 536.77-14.37L536.77-14.37L536.77-14.37Q534.34-15.49 531.90-16.77L531.90-16.77L531.90-16.77Q529.47-18.05 527.74-20.26L527.74-20.26L527.74-20.26Q526.02-22.46 526.02-25.41L526.02-25.41L526.02-25.41Q526.02-29.70 529.12-32.13L529.12-32.13L529.12-32.13Q532.22-34.56 536.74-34.56L536.74-34.56L536.74-34.56Q541.25-34.56 547.52-32.96L547.52-32.96L546.82-24.90L543.49-25.22L543.49-27.84L543.49-27.84Q543.49-28.10 542.85-30.14L542.85-30.14L542.85-30.14Q540.29-31.23 537.73-31.23L537.73-31.23L537.73-31.23Q535.17-31.23 533.63-29.98L533.63-29.98L533.63-29.98Q532.10-28.74 532.10-26.62L532.10-26.62L532.10-26.62Q532.10-24.51 533.82-23.01L533.82-23.01L533.82-23.01Q535.55-21.50 538.02-20.38L538.02-20.38L538.02-20.38Q540.48-19.26 542.94-17.95L542.94-17.95L542.94-17.95Q545.41-16.64 547.14-14.40L547.14-14.40L547.14-14.40Q548.86-12.16 548.86-9.15L548.86-9.15L548.86-9.15Q548.86-4.48 545.41-1.89L545.41-1.89L545.41-1.89Q541.95 0.70 536.64 0.70L536.64 0.70L536.64 0.70Q533.70 0.70 530.88 0.10L530.88 0.10L530.88 0.10Q528.06-0.51 526.72-1.15L526.72-1.15L525.44-1.73L526.21-9.86L529.79-9.60Z" fill="#ccc"></path></g></g><style>text {
  font-size: 64px;
  font-family: Arial Black;
  dominant-baseline: central;
  text-anchor: middle;
}</style></svg>